<?xml version="1.0" standalone="no"?>
<!DOCTYPE svg PUBLIC "-//W3C//DTD SVG 20010904//EN"
 "http://www.w3.org/TR/2001/REC-SVG-20010904/DTD/svg10.dtd">
<svg version="1.0" xmlns="http://www.w3.org/2000/svg"
 width="142.000000pt" height="50.000000pt" viewBox="0 0 142.000000 50.000000"
 preserveAspectRatio="xMidYMid meet">

<g transform="translate(0.000000,50.000000) scale(0.100000,-0.100000)"
fill="#000000" stroke="none">
<path d="M250 255 l0 -105 55 0 c42 0 55 3 55 15 0 11 -11 15 -40 15 l-40 0 0
90 c0 73 -3 90 -15 90 -12 0 -15 -18 -15 -105z"/>
<path d="M800 255 l0 -105 43 0 c23 0 53 7 65 16 30 20 30 69 0 85 -19 10 -19
12 -5 21 10 5 17 21 17 39 0 34 -27 49 -86 49 l-34 0 0 -105z m88 48 c-2 -23
-9 -29 -33 -31 -28 -3 -31 0 -33 28 -2 28 0 30 34 30 33 0 35 -2 32 -27z m7
-93 c0 -22 -5 -25 -37 -28 -36 -3 -38 -2 -38 28 0 30 2 31 38 28 32 -3 37 -6
37 -28z"/>
<path d="M560 316 c0 -8 -6 -17 -12 -20 -10 -5 -10 -7 0 -12 7 -3 12 -25 12
-54 0 -51 20 -83 48 -78 24 5 27 28 3 28 -18 0 -21 6 -21 50 0 43 3 50 20 50
11 0 20 5 20 10 0 6 -9 10 -20 10 -11 0 -20 7 -20 15 0 8 -7 15 -15 15 -8 0
-15 -6 -15 -14z"/>
<path d="M423 290 c-43 -18 -45 -105 -2 -129 27 -15 79 -9 79 9 0 6 -11 8 -24
4 -18 -4 -31 1 -48 18 l-23 23 58 3 c59 3 65 9 46 45 -20 38 -42 45 -86 27z
m57 -25 c18 -21 9 -27 -36 -23 -36 3 -37 4 -20 21 21 21 40 22 56 2z"/>
<path d="M678 289 c-10 -5 -18 -21 -18 -34 0 -19 9 -28 35 -39 19 -8 35 -20
35 -25 0 -14 -45 -25 -61 -16 -7 5 -10 3 -7 -6 6 -18 42 -23 67 -9 35 18 27
57 -14 74 -19 8 -35 19 -35 24 0 14 30 23 53 16 14 -4 18 -2 15 7 -6 17 -47
22 -70 8z"/>
<path d="M970 247 c0 -79 40 -121 79 -84 11 10 14 10 18 0 3 -7 11 -13 19 -13
11 0 14 17 14 75 0 59 -3 75 -15 75 -10 0 -15 -15 -17 -57 -3 -57 -3 -58 -33
-58 -30 0 -30 1 -33 58 -2 42 -7 57 -17 57 -11 0 -15 -13 -15 -53z"/>
<path d="M1130 296 c0 -2 13 -36 30 -76 32 -77 29 -110 -10 -110 -11 0 -20 -7
-20 -15 0 -8 6 -15 13 -15 30 0 57 35 85 107 17 43 33 86 37 96 5 11 2 17 -7
17 -9 0 -22 -23 -33 -60 -10 -33 -22 -57 -25 -53 -4 4 -15 32 -25 61 -10 30
-23 52 -31 52 -8 0 -14 -2 -14 -4z"/>
<path d="M1285 180 c-4 -6 -3 -16 3 -22 6 -6 12 -6 17 2 4 6 3 16 -3 22 -6 6
-12 6 -17 -2z"/>
</g>
</svg>
